<svg xmlns="http://www.w3.org/2000/svg" width="16" height="16" fill="none" viewBox="0 0 16 16" class="stk_currentColor fill_currentColor stk-w_0 rtl:trf_scaleX(-1) is-rtl-prevented_false mx_lg mb_xs c_onColor.primary"><path fill="currentColor" fill-rule="evenodd" d="m6.73 11.53 2.22 2.22-.42 1.26H6.24l-2.77-1.39.52-2.09zm5.85.97.81.48-.14.28-3.51 1.75h-.42l.33-1.02zm-10.84-4 1.56 2.71-.52 2.07-.03-.02L1 9.76V8.5zm6.99-.13 2.99.49.5 2.98-2.73 1.39-2.14-2.14zm4.97-1.46 1.3.27v2.58l-1.27 2.55-.74-.44-.55-3.24zM3.55 5.56l3.02.02 1.51 2.41-1.42 2.79H3.92L2.38 8.12zm5.36-2.82 2.89.86 1.27 2.91-1.19 1.62-3.15-.52-1.5-2.39zm-6.37.44.38 1.96-1.19 2.61H1V6.26zM13.3 2.9 15 6.25v.16l-1.27-.26-1.19-2.73zM7.08 1l-.01.01 1.2 1.33-1.68 2.49-2.97-.02-.44-2.26L6.24 1zm2.66 0 2.88 1.46-.62.42-3.06-.92L8.07 1z" clip-rule="evenodd"/></svg>